<mxfile host="app.diagrams.net" modified="2024-01-11T13:49:14.583Z" agent="Mozilla/5.0 (Windows NT 10.0; Win64; x64) AppleWebKit/537.36 (KHTML, like Gecko) Chrome/120.0.0.0 Safari/537.36" etag="ehh2QI4FFjC4hSlGdDYO" version="22.1.18" type="github">
  <diagram name="Página-1" id="PAKBXWIzdyOyvLYn1h7N">
    <mxGraphModel dx="1120" dy="468" grid="1" gridSize="10" guides="1" tooltips="1" connect="1" arrows="1" fold="1" page="1" pageScale="1" pageWidth="827" pageHeight="1169" math="0" shadow="0">
      <root>
        <mxCell id="0" />
        <mxCell id="1" parent="0" />
        <mxCell id="SJYhTtD3auj9NlyYmK34-1" value="Definição de termos, atributos e KPI`s (Qualidade/Metadados (TEC-BUS-QUAL)/" style="rounded=1;whiteSpace=wrap;html=1;align=left;" vertex="1" parent="1">
          <mxGeometry x="10" y="130" width="360" height="60" as="geometry" />
        </mxCell>
        <mxCell id="SJYhTtD3auj9NlyYmK34-2" value="Qual o nível de maturidade de Governança de Dados?" style="rounded=1;whiteSpace=wrap;html=1;align=left;" vertex="1" parent="1">
          <mxGeometry x="10" y="200" width="360" height="60" as="geometry" />
        </mxCell>
        <mxCell id="SJYhTtD3auj9NlyYmK34-3" value="Hoje a companhia já possui Catalogo de Dados Corporativo? Se sim , também já existe um ferramenta ou portal com essas informações?&amp;nbsp;&lt;br&gt;Se o portal existe as politicas, padrões e Boas Praticas estão mencionas nesse portal?&lt;br&gt;Hoje o portal esta segmentado or Dominio?" style="rounded=1;whiteSpace=wrap;html=1;align=left;" vertex="1" parent="1">
          <mxGeometry x="10" y="270" width="360" height="100" as="geometry" />
        </mxCell>
        <mxCell id="SJYhTtD3auj9NlyYmK34-4" value="Já tem uma Matriz de responsabilidade para as atividades de Governança de Dados?&lt;br&gt;Data Steward já existe?" style="rounded=1;whiteSpace=wrap;html=1;align=left;" vertex="1" parent="1">
          <mxGeometry x="10" y="380" width="360" height="60" as="geometry" />
        </mxCell>
        <mxCell id="SJYhTtD3auj9NlyYmK34-6" value="Já existe um comitê onde são passados dos as informações de dados para o time interno e externo?" style="rounded=1;whiteSpace=wrap;html=1;align=left;" vertex="1" parent="1">
          <mxGeometry x="10" y="450" width="360" height="60" as="geometry" />
        </mxCell>
        <mxCell id="SJYhTtD3auj9NlyYmK34-7" value="Sobre Qualidade de Dados, qual é o nível de maturidade hoje?" style="rounded=1;whiteSpace=wrap;html=1;align=left;" vertex="1" parent="1">
          <mxGeometry x="10" y="530" width="360" height="60" as="geometry" />
        </mxCell>
        <mxCell id="SJYhTtD3auj9NlyYmK34-8" value="Hoje é aplicado alguma das dimensões de qualidade?&lt;br&gt;Esse trabalho deve ser feito próximo aos desenvolvedores/eng. dados" style="rounded=1;whiteSpace=wrap;html=1;align=left;" vertex="1" parent="1">
          <mxGeometry x="10" y="610" width="360" height="60" as="geometry" />
        </mxCell>
        <mxCell id="SJYhTtD3auj9NlyYmK34-9" value="Hoje existe algum guide de melhores praticas para criação de modelos?" style="rounded=1;whiteSpace=wrap;html=1;align=left;" vertex="1" parent="1">
          <mxGeometry x="10" y="690" width="360" height="60" as="geometry" />
        </mxCell>
        <mxCell id="SJYhTtD3auj9NlyYmK34-10" value="Hoje existe alguma área direcionadas para LGPD?&lt;br&gt;Como é atendido os pedidos dos clientes em relação a uso dos dados?" style="rounded=1;whiteSpace=wrap;html=1;align=left;" vertex="1" parent="1">
          <mxGeometry x="10" y="770" width="360" height="60" as="geometry" />
        </mxCell>
      </root>
    </mxGraphModel>
  </diagram>
</mxfile>
